<mxfile host="Electron" modified="2023-09-21T09:05:59.235Z" agent="Mozilla/5.0 (Windows NT 10.0; Win64; x64) AppleWebKit/537.36 (KHTML, like Gecko) draw.io/21.2.1 Chrome/112.0.5615.87 Electron/24.1.2 Safari/537.36" etag="KG8n6yFkTytMeNfxwM1b" version="21.2.1" type="device">
  <diagram name="Page-1" id="ATV3okdVBF34MHg3XZrK">
    <mxGraphModel dx="2600" dy="2194" grid="1" gridSize="10" guides="1" tooltips="1" connect="1" arrows="1" fold="1" page="1" pageScale="1" pageWidth="827" pageHeight="1169" math="0" shadow="0">
      <root>
        <mxCell id="0" />
        <mxCell id="1" parent="0" />
        <mxCell id="6VGJZ6S04UGO7gnnilW4-12" value="" style="rounded=0;whiteSpace=wrap;html=1;" vertex="1" parent="1">
          <mxGeometry x="-610" y="-920" width="1410" height="1480" as="geometry" />
        </mxCell>
        <mxCell id="6VGJZ6S04UGO7gnnilW4-10" value="" style="rounded=0;whiteSpace=wrap;html=1;" vertex="1" parent="1">
          <mxGeometry x="-310" y="-820" width="920" height="1240" as="geometry" />
        </mxCell>
        <mxCell id="6VGJZ6S04UGO7gnnilW4-2" value="Segment(Led offset, num of leds)" style="rounded=0;whiteSpace=wrap;html=1;" vertex="1" parent="1">
          <mxGeometry x="390" y="-70" width="120" height="330" as="geometry" />
        </mxCell>
        <mxCell id="6VGJZ6S04UGO7gnnilW4-4" value="Segment(Led offset, num of leds)" style="rounded=0;whiteSpace=wrap;html=1;rotation=90;" vertex="1" parent="1">
          <mxGeometry x="150" y="-750" width="120" height="330" as="geometry" />
        </mxCell>
        <mxCell id="6VGJZ6S04UGO7gnnilW4-5" value="Segment(Led offset, num of leds)" style="rounded=0;whiteSpace=wrap;html=1;rotation=90;" vertex="1" parent="1">
          <mxGeometry x="150" y="170" width="120" height="330" as="geometry" />
        </mxCell>
        <mxCell id="6VGJZ6S04UGO7gnnilW4-6" value="Segment(Led offset, num of leds)" style="rounded=0;whiteSpace=wrap;html=1;rotation=90;" vertex="1" parent="1">
          <mxGeometry x="150" y="-290" width="120" height="330" as="geometry" />
        </mxCell>
        <mxCell id="6VGJZ6S04UGO7gnnilW4-7" value="Segment(Led offset, num of leds)" style="rounded=0;whiteSpace=wrap;html=1;" vertex="1" parent="1">
          <mxGeometry x="-100" y="-60" width="120" height="330" as="geometry" />
        </mxCell>
        <mxCell id="6VGJZ6S04UGO7gnnilW4-8" value="Segment(Led offset, num of leds)" style="rounded=0;whiteSpace=wrap;html=1;" vertex="1" parent="1">
          <mxGeometry x="-90" y="-510" width="120" height="330" as="geometry" />
        </mxCell>
        <mxCell id="6VGJZ6S04UGO7gnnilW4-9" value="Segment(Led offset, num of leds)" style="rounded=0;whiteSpace=wrap;html=1;" vertex="1" parent="1">
          <mxGeometry x="390" y="-510" width="120" height="330" as="geometry" />
        </mxCell>
        <mxCell id="6VGJZ6S04UGO7gnnilW4-11" value="&lt;font style=&quot;font-size: 27px;&quot;&gt;Digit{&lt;br&gt;Segments[], &lt;br&gt;Current value, &lt;br&gt;static font,&lt;br style=&quot;border-color: var(--border-color);&quot;&gt;led_offset_digit&lt;br&gt;}&lt;br&gt;&lt;br&gt;update(number_to_render)&lt;br&gt;&lt;/font&gt;" style="text;html=1;strokeColor=none;fillColor=none;align=left;verticalAlign=top;whiteSpace=wrap;rounded=0;" vertex="1" parent="1">
          <mxGeometry x="-300" y="-790" width="280" height="300" as="geometry" />
        </mxCell>
        <mxCell id="6VGJZ6S04UGO7gnnilW4-13" value="&lt;font style=&quot;font-size: 27px;&quot;&gt;Display(Digits[])&lt;br&gt;&lt;br&gt;&lt;br&gt;&lt;/font&gt;" style="text;html=1;strokeColor=none;fillColor=none;align=left;verticalAlign=top;whiteSpace=wrap;rounded=0;" vertex="1" parent="1">
          <mxGeometry x="-610" y="-910" width="290" height="440" as="geometry" />
        </mxCell>
      </root>
    </mxGraphModel>
  </diagram>
</mxfile>
